<?xml version="1.0" encoding="UTF-8" standalone="no"?>
<!DOCTYPE svg PUBLIC "-//W3C//DTD SVG 1.1//EN" "http://www.w3.org/Graphics/SVG/1.1/DTD/svg11.dtd">
<svg width="100%" height="100%" viewBox="0 0 735 735" version="1.1" xmlns="http://www.w3.org/2000/svg" xmlns:xlink="http://www.w3.org/1999/xlink" xml:space="preserve" xmlns:serif="http://www.serif.com/" style="fill-rule:evenodd;clip-rule:evenodd;stroke-linejoin:round;stroke-miterlimit:2;">
    <g transform="matrix(1,0,0,1,0,-934)">
        <g id="Tavola-da-disegno2" serif:id="Tavola da disegno2" transform="matrix(1,0,0,1,97.2456,-0.294062)">
            <rect x="-97.246" y="934.294" width="734.132" height="734.132" style="fill:none;"/>
            <g transform="matrix(94.8129,0,0,94.8129,-5992.18,630.212)">
                <path d="M68.617,4.435C67.893,4.074 67.009,3.833 66.123,3.833C64.635,3.833 63.268,4.758 62.826,5.843C62.826,7.211 63.067,8.538 63.389,9.704C64.112,10.066 64.957,10.267 65.882,10.267C66.848,10.267 67.813,10.066 68.617,9.704C68.979,8.9 69.179,8.015 69.179,7.049C69.179,6.085 68.979,5.2 68.617,4.435" style="fill-rule:nonzero;"/>
            </g>
            <g transform="matrix(23.7619,0,0,23.7619,-1121.52,1125.25)">
                <path d="M53.274,4.457C52.551,4.095 51.666,3.854 50.781,3.854C49.293,3.854 47.926,4.78 47.483,5.865C47.483,7.233 47.725,8.56 48.046,9.726C48.77,10.088 49.614,10.289 50.539,10.289C51.505,10.289 52.47,10.088 53.274,9.726C53.637,8.922 53.837,8.037 53.837,7.071C53.837,6.106 53.637,5.222 53.274,4.457" style="fill:rgb(238,228,12);fill-rule:nonzero;"/>
            </g>
            <g transform="matrix(23.7619,0,0,23.7619,-1121.52,1125.25)">
                <path d="M61.011,4.435C60.287,4.074 59.403,3.833 58.517,3.833C57.029,3.833 55.662,4.758 55.22,5.843C55.22,7.211 55.461,8.538 55.783,9.704C56.506,10.066 57.351,10.267 58.276,10.267C59.242,10.267 60.207,10.066 61.011,9.704C61.373,8.9 61.573,8.015 61.573,7.049C61.573,6.085 61.373,5.2 61.011,4.435" style="fill:rgb(238,228,12);fill-rule:nonzero;"/>
            </g>
            <g transform="matrix(23.7619,0,0,23.7619,-1121.52,1125.25)">
                <path d="M58.401,8.633C58.569,8.633 58.737,8.679 58.875,8.748C58.944,8.893 58.982,9.06 58.982,9.244C58.982,9.428 58.944,9.595 58.875,9.749C58.722,9.818 58.538,9.856 58.354,9.856C58.179,9.856 58.018,9.818 57.881,9.749C57.819,9.527 57.774,9.275 57.774,9.014C57.858,8.808 58.117,8.633 58.401,8.633" style="fill:rgb(28,28,27);fill-rule:nonzero;"/>
            </g>
            <g transform="matrix(23.7619,0,0,23.7619,-1121.52,1125.25)">
                <path d="M57.856,4.321L58.9,4.321L58.77,8.257L57.985,8.257L57.856,4.321Z" style="fill:rgb(28,28,27);fill-rule:nonzero;"/>
            </g>
            <g transform="matrix(23.7619,0,0,23.7619,-1121.52,1125.25)">
                <path d="M68.617,4.435C67.893,4.074 67.009,3.833 66.123,3.833C64.635,3.833 63.268,4.758 62.826,5.843C62.826,7.211 63.067,8.538 63.389,9.704C64.112,10.066 64.957,10.267 65.882,10.267C66.848,10.267 67.813,10.066 68.617,9.704C68.979,8.9 69.179,8.015 69.179,7.049C69.179,6.085 68.979,5.2 68.617,4.435" style="fill:rgb(238,228,12);fill-rule:nonzero;"/>
            </g>
            <g transform="matrix(23.7619,0,0,23.7619,-1121.52,1125.25)">
                <path d="M49.573,8.318C49.836,8.393 50.215,8.465 50.615,8.465L50.616,8.465C51.034,8.465 51.467,8.385 51.833,8.239C51.934,7.913 52.012,7.512 52.012,7.097C52.012,6.676 51.935,6.281 51.783,5.924C51.479,5.814 51.088,5.727 50.73,5.727C50.061,5.727 49.495,6.144 49.304,6.536C49.32,7.067 49.407,7.681 49.573,8.318" style="fill:rgb(28,28,27);fill-rule:nonzero;"/>
            </g>
            <g transform="matrix(23.7619,0,0,23.7619,-1121.52,1125.25)">
                <path d="M67.732,9.566L66.066,8.69L64.401,9.566L64.719,7.712L63.372,6.398L65.233,6.128L66.067,4.44L66.899,6.128L68.76,6.398L67.412,7.712L67.732,9.566Z" style="fill:rgb(28,28,27);fill-rule:nonzero;"/>
            </g>
        </g>
    </g>
</svg>
